<?xml version="1.0" encoding="utf-8"?>
<!-- Generator: Adobe Illustrator 24.1.2, SVG Export Plug-In . SVG Version: 6.00 Build 0)  -->
<svg version="1.1" id="Camada_1" xmlns="http://www.w3.org/2000/svg" xmlns:xlink="http://www.w3.org/1999/xlink" x="0px" y="0px"
	 viewBox="0 0 7086.61 2551.18" style="enable-background:new 0 0 7086.61 2551.18;" xml:space="preserve">
<path fill="#181818" d="M4065.26,1285.64c-26.3,1.46-51.5,2.99-76.71,4.23c-53.54,2.63-107.11,4.74-160.63,7.81c-22.22,1.27-44.38,4.07-66.48,6.9
	c-14.73,1.89-23.79,11.77-29.09,24.88c-3.33,8.23-5.57,16.93-7.92,25.52c-56.91,208.03-114.09,415.99-170.34,624.19
	c-10.85,40.15-18.02,81.3-26.88,121.99c-0.95,4.36-2.08,8.7-2.75,13.11c-5.59,37.12,2.55,52.71,39.14,63.05
	c32.85,9.28,66.88,14.36,100.35,21.47c16,3.4,32.05,6.72,47.81,11.02c8.83,2.41,15.43,13.64,11.65,21.02
	c-2.94,5.75-9.54,12.38-15.38,13.32c-11.56,1.87-23.74,0.51-35.62-0.26c-153.3-9.91-306.76-10.43-460.24-7.34
	c-81.93,1.65-163.82,5.32-245.73,7.82c-13.12,0.4-26.88,4.04-40.93-6.28c0-4.23-2.05-11.16,0.49-15.2
	c3.59-5.72,10.02-12.1,16.19-13.31c23.34-4.56,46.99-7.78,70.66-10.31c34.06-3.65,68.28-5.84,102.34-9.53
	c13.23-1.44,26.38-4.65,39.26-8.16c30.06-8.21,54.44-25.35,69.22-52.69c14.81-27.39,28.58-55.65,39.51-84.76
	c31.42-83.72,53.1-170.35,73.52-257.27c27.56-117.29,54.86-234.64,82.18-351.99c1.33-5.69,1.83-11.57,3.2-20.51
	c-10.43-2.07-19.91-5.47-29.43-5.59c-46.19-0.59-92.39-0.48-138.58-0.3c-126.65,0.48-253.31,1.08-379.96,1.72
	c-13.41,0.07-26.81,0.94-40.22,1.03c-11.03,0.08-20.24,3.71-27.98,11.62c-7.29,7.45-14.88,14.6-22.36,21.86
	c-143.33,139.1-291.49,272.68-450.97,393.29c-152.49,115.33-313.44,216.67-488.61,294.46c-168.57,74.86-344.57,123.1-527.54,145.38
	c-118.6,14.44-237.87,18.3-356.98,9.7c-163.78-11.83-319.79-53.12-464.2-133.28c-102.85-57.09-192.03-130.46-263.24-224.51
	c-115.96-153.14-164.53-326.03-141.95-516.23c19.03-160.34,89.96-295.05,219.43-395.14c85.29-65.94,182.43-100.66,290.89-95.99
	c122.14,5.26,224.98,53.56,303.88,147.99c52.36,62.67,80.16,135.07,79.11,217.64c-0.31,24.23-5.24,47.35-14.68,69.42
	c-39.66,92.67-126.62,121.52-214.27,88.49c-45.85-17.28-71.42-53.09-74.95-101.94c-1.47-20.4,1.59-41.5,5.29-61.8
	c3.98-21.88,11.54-43.09,16.79-64.77c12.27-50.67-1.77-94.18-37.63-130.99c-30.17-30.96-68.18-48.28-109.8-55.98
	c-110.88-20.5-203.15,12.41-273.86,100.94c-51.81,64.88-78.3,140.4-83.46,222.34c-9.75,154.74,37.96,290.34,142.78,405.19
	c68.35,74.9,151.44,129.25,242.98,171.34c96.64,44.43,198.17,72.89,302.87,90.43c153.56,25.73,307.93,30.18,463.25,20.55
	c144.76-8.97,287.07-30.24,426.42-70.84c165.59-48.25,319.63-121.66,465.83-212.26c160.02-99.17,307.24-215.29,448.27-339.48
	c205.96-181.35,398.67-376.21,583.15-579c160.33-176.24,316.95-355.87,474.93-534.25c21.71-24.51,41.61-50.61,62.7-75.67
	c8.62-10.24,18.13-19.73,27.33-29.47c12.05-12.76,26.89-17.42,44.36-16.65c46.12,2.03,92.26,3.53,138.4,5.02
	c129.64,4.17,258.81,13.39,386.77,35.71c67.6,11.79,134.15,27.61,197.64,54.2c141.27,59.16,215.22,168.01,233.19,317.55
	c11.81,98.27-11.09,189.08-60.43,274c-47.08,81.03-110.34,147.59-183.91,204.81c-111.96,87.07-238.11,145.92-373.43,186.33
	c-15.31,4.57-30.61,9.18-49.68,14.91c6.19,8.23,9.69,14.42,14.58,19.16c182.09,176.42,371.55,344.04,582.49,485.94
	c148.87,100.14,306.01,183.97,476.6,241.46c116.1,39.13,234.97,65.01,356.59,79.97c129.07,15.88,258.54,20.32,388.15,14.51
	c155.42-6.97,307.96-31.55,454.17-87.6c83.96-32.18,162.71-73.67,232.92-130.27c105.59-85.13,177.44-191.68,204.82-325.84
	c17.9-87.74,15.71-174.64-14.47-259.74c-17.62-49.68-43.34-94.74-80.55-132.53c-80.17-81.42-176.14-100.24-283.45-68.64
	c-19.62,5.78-38.64,16.2-55.61,27.86c-56.01,38.46-75.74,93.78-59.1,159.94c6.17,24.52,13.66,48.75,18.72,73.49
	c13.06,63.84-15.17,145.93-117.52,156.38c-98.5,10.06-174.93-52.81-183.59-151.61c-6.35-72.41,12.06-139.05,51.7-199.34
	c64.87-98.65,157.19-157.21,272.89-177.04c141.64-24.27,265.43,18.05,372.59,110.08c104.6,89.83,166.77,205.48,189.11,340.52
	c36.73,222.11-22.25,418.92-168.33,589.17c-104.37,121.63-236.81,202.46-386.96,255.52c-159.56,56.39-324.46,72.63-492.75,67.03
	c-325.91-10.85-625.67-108.77-907.49-267.95c-182.27-102.95-349.75-226.63-508.52-362.5c-150.71-128.97-291.46-268.26-427.85-412.06
	C4088.15,1310.22,4077.05,1298.24,4065.26,1285.64z M3775.47,1223.44c14.21,3.33,28.32,8.56,42.75,9.68
	c53.4,4.17,106.86,7.89,160.37,10.12c99.77,4.16,191.49-24.06,276.14-74.8c136.36-81.74,232.57-197.95,288.27-346.68
	c33.83-90.34,49.31-183.59,35.45-280.27c-10.99-76.68-48.35-137.06-114.22-177.82c-26.33-16.29-55.29-29.09-84.34-40.09
	c-54.65-20.69-112.36-29.4-170.21-34.02c-48.89-3.91-98.18-2.95-147.29-4.09c-16.95-0.39-28.1,6.99-33.06,23.77
	c-4.21,14.25-9.91,28.05-14.05,42.32c-79.59,274.09-159.07,548.22-238.49,822.36C3772.67,1188.09,3767.17,1202.3,3775.47,1223.44z
	 M2892.33,1340.4c15.92,1.36,23.13,2.49,30.34,2.52c163.71,0.7,327.42,1.35,491.14,1.66c8.51,0.02,17.03-3.03,28.1-5.14
	c59.65-258.23,119.18-515.86,178.46-773.54c0.87-3.78-1.42-8.3-2.19-12.18c-2.33-0.35-3.81-0.77-5.27-0.74
	c-1.41,0.04-3.36,0.06-4.15,0.93c-230.24,254.89-453.6,516.04-694.87,760.87C2907.94,1320.82,2902.91,1327.76,2892.33,1340.4z"/>
</svg>
